<svg width="24" height="24" viewBox="0 0 24 24" fill="none" xmlns="http://www.w3.org/2000/svg">
    <mask id="mask0_2_28" style="mask-type:alpha" maskUnits="userSpaceOnUse" x="0" y="0" width="24" height="24">
        <rect width="24" height="24" />
    </mask>
    <g mask="url(#mask0_2_28)">
        <path d="M17.5577 20.9422H18.4423V18.4422H20.9423V17.5577H18.4423V15.0577H17.5577V17.5577H15.0577V18.4422H17.5577V20.9422ZM18 22.5C16.7513 22.5 15.6892 22.0622 14.8135 21.1865C13.9378 20.3108 13.5 19.2487 13.5 18C13.5 16.7513 13.9378 15.6892 14.8135 14.8135C15.6892 13.9378 16.7513 13.5 18 13.5C19.2487 13.5 20.3108 13.9378 21.1865 14.8135C22.0622 15.6892 22.5 16.7513 22.5 18C22.5 19.2487 22.0622 20.3108 21.1865 21.1865C20.3108 22.0622 19.2487 22.5 18 22.5ZM9.30775 6.74999V5.24999H20.5V6.74999H9.30775ZM5.1635 19.6635C4.706 19.6635 4.31442 19.5006 3.98875 19.1747C3.66292 18.8491 3.5 18.4575 3.5 18C3.5 17.5425 3.66292 17.1509 3.98875 16.8252C4.31442 16.4994 4.706 16.3365 5.1635 16.3365C5.621 16.3365 6.01258 16.4994 6.33825 16.8252C6.66408 17.1509 6.827 17.5425 6.827 18C6.827 18.4575 6.66408 18.8491 6.33825 19.1747C6.01258 19.5006 5.621 19.6635 5.1635 19.6635ZM5.1635 13.6635C4.706 13.6635 4.31442 13.5006 3.98875 13.1747C3.66292 12.8491 3.5 12.4575 3.5 12C3.5 11.5425 3.66292 11.1509 3.98875 10.8252C4.31442 10.4994 4.706 10.3365 5.1635 10.3365C5.621 10.3365 6.01258 10.4994 6.33825 10.8252C6.66408 11.1509 6.827 11.5425 6.827 12C6.827 12.4575 6.66408 12.8491 6.33825 13.1747C6.01258 13.5006 5.621 13.6635 5.1635 13.6635ZM5.1635 7.66349C4.706 7.66349 4.31442 7.50057 3.98875 7.17474C3.66292 6.84907 3.5 6.45749 3.5 5.99999C3.5 5.54249 3.66292 5.1509 3.98875 4.82524C4.31442 4.4994 4.706 4.33649 5.1635 4.33649C5.621 4.33649 6.01258 4.4994 6.33825 4.82524C6.66408 5.1509 6.827 5.54249 6.827 5.99999C6.827 6.45749 6.66408 6.84907 6.33825 7.17474C6.01258 7.50057 5.621 7.66349 5.1635 7.66349ZM9.30775 18.75V17.25H11.2963C11.2591 17.5 11.2405 17.75 11.2405 18C11.2405 18.25 11.2591 18.5 11.2963 18.75H9.30775ZM9.30775 12.75V11.25H18C17.2103 11.25 16.4661 11.3827 15.7673 11.648C15.0686 11.9135 14.4411 12.2808 13.8848 12.75H9.30775Z"/>
    </g>
</svg>
