<svg width="24" height="24" viewBox="0 0 24 24" fill="none" xmlns="http://www.w3.org/2000/svg">
    <mask id="mask0_2_40" style="mask-type:alpha" maskUnits="userSpaceOnUse" x="0" y="0" width="24" height="24">
        <rect width="24" height="24" fill="#B3B3B3"/>
    </mask>
    <g mask="url(#mask0_2_40)">
        <path d="M17.25 21.75V18.75H14.25V17.25H17.25V14.25H18.75V17.25H21.75V18.75H18.75V21.75H17.25ZM5.30775 19.5C4.80258 19.5 4.375 19.325 4.025 18.975C3.675 18.625 3.5 18.1974 3.5 17.6923V6.30777C3.5 5.8026 3.675 5.37502 4.025 5.02502C4.375 4.67502 4.80258 4.50002 5.30775 4.50002H6.69225V2.38477H8.23075V4.50002H13.8077V2.38477H15.3077V4.50002H16.6923C17.1974 4.50002 17.625 4.67502 17.975 5.02502C18.325 5.37502 18.5 5.8026 18.5 6.30777V12.2155C18.25 12.1847 18 12.1693 17.75 12.1693C17.5 12.1693 17.25 12.1847 17 12.2155V10.3078H5V17.6923C5 17.7693 5.03208 17.8398 5.09625 17.9038C5.16025 17.9679 5.23075 18 5.30775 18H12.1442C12.1442 18.25 12.1597 18.5 12.1905 18.75C12.2212 19 12.2775 19.25 12.3595 19.5H5.30775ZM5 8.80777H17V6.30777C17 6.23077 16.9679 6.16026 16.9038 6.09626C16.8398 6.0321 16.7692 6.00002 16.6923 6.00002H5.30775C5.23075 6.00002 5.16025 6.0321 5.09625 6.09626C5.03208 6.16026 5 6.23077 5 6.30777V8.80777Z" fill="#B3B3B3"/>
    </g>
</svg>
